# xmcd
#
# Track frame offsets:
#	150
#	19212
#	37291
#	52084
#	66000
#	83013
#	98063
#	115415
#	136076
#	154986
#	169229
#
# Disc length: 2524 seconds
#
# Revision: 3
# Processed by: cddbd v1.5.2PL0 Copyright (c) Steve Scherf et al.
# Submitted via: EasyCDDAExtractor 10.0.2.1
#
DISCID=9509da0b
DTITLE=Rita Eriksen - Alt vende tebage
DYEAR=1995
DGENRE=Country
TTITLE0=Ingeplass og øvealt
TTITLE1=Sei det te meg
TTITLE2=Kanarifoggelens sang
TTITLE3=Mellom drøm og dag
TTITLE4=Ingen vei tebage
TTITLE5=Om og om igjen
TTITLE6=På vidle veier
TTITLE7=Tyggi frå USA
TTITLE8=Sønnavindvalsen
TTITLE9=Den bitraste blues
TTITLE10=Bedemaens dotter
EXTD=
EXTT0=
EXTT1=
EXTT2=
EXTT3=
EXTT4=
EXTT5=
EXTT6=
EXTT7=
EXTT8=
EXTT9=
EXTT10=
PLAYORDER=
